<svg xmlns="http://www.w3.org/2000/svg" fill="none" viewBox="0 0 21 18">
  <g clip-path="url(#a)">
    <path fill="url(#b)" fill-rule="evenodd" d="M2.99998 0c1.65683 0 2.99997 1.34314 2.99997 2.99999V15c0 1.6568-1.34314 3-2.99997 3C1.34314 18 0 16.6568 0 15V2.99999C0 1.34314 1.34314 0 2.99998 0Z" clip-rule="evenodd"/>
    <path fill="url(#c)" fill-rule="evenodd" d="M18.0001.0001C19.6569.0001 21 1.34322 21 3.00007V15c0 1.6569-1.3431 3-2.9999 3C16.3432 18 15 16.6569 15 15V3.00008C15 1.34323 16.3432.00009 18.0001.00009Z" clip-rule="evenodd"/>
    <path fill="url(#d)" fill-rule="evenodd" d="M19.9205.69547c1.2728 1.06069 1.4448 2.95238.3841 4.2252l-7.4999 8.99993c-1.0607 1.2729-2.95237 1.4448-4.22519.3841-1.27282-1.0606-1.44479-2.9523-.38411-4.2252l7.4999-8.99992c1.0607-1.27283 2.9524-1.4448 4.2252-.38411Z" clip-rule="evenodd"/>
    <path fill="url(#e)" d="M20.0038.7674a2.8986 2.8986 0 0 0-.0833-.07196c-.1677-.13975-.3461-.2581-.5319-.35536a2.98212 2.98212 0 0 0-.8855-.298 3.0207 3.0207 0 0 0-.503-.04199 3.0609 3.0609 0 0 0-.0832.00113c-.412.01158-.8208.10757-1.198.28544-.3639.17207-.6875.41513-.953.7113a2.84242 2.84242 0 0 0-.0705.08159l-.0154.01849c-.425.51767-.68 1.18007-.68 1.90204v8.28612l5.3047-6.36556c.4624-.55499.6906-1.22763.6953-1.89774v-.02282c0-.45682-.1021-.8898-.2847-1.27735-.1719-.36465-.415-.68908-.7115-.95533Z"/>
    <path fill="url(#f)" fill-rule="evenodd" d="M1.07952.6954c1.27282-1.06068 3.16449-.8887 4.22517.38412l7.49991 8.99988c1.0608 1.2729.8888 3.1646-.384 4.2252-1.2729 1.0607-3.16458.8888-4.22526-.3841L.69541 4.92061C-.36528 3.64779-.19331 1.7561 1.07952.69541Z" clip-rule="evenodd"/>
    <path fill="url(#g)" d="M1.60522.34326c-.18362.09663-.35996.2139-.52579.35209a3.05674 3.05674 0 0 0-.08227.07108c-.63124.5653-.96911 1.34301-.99555 2.13446A3.05501 3.05501 0 0 0 0 2.99999v.02307c.00477.67003.2329 1.34257.69533 1.89749l5.30462 6.36555V2.99999c0-.7219-.25498-1.38425-.6798-1.90189l-.01553-.01864A3.03765 3.03765 0 0 0 5.2332.99681C4.6641.36153 3.87983.02349 3.08301.00113A3.0571 3.0571 0 0 0 2.99998 0c-.39599 0-.77405.07672-1.12014.2161a2.98627 2.98627 0 0 0-.27462.12716Z"/>
    <path fill="url(#h)" d="M8.37861 14.1215a3.02199 3.02199 0 0 1-.18321-.2009l-.03805-.0456c-.87435-1.0902-.89121-2.6803.03805-3.7954L10.5 7.31396l2.3047 2.76564c.9292 1.1151.9124 2.7052.0381 3.7954l-.0381.0456a3.03464 3.03464 0 0 1-.1832.201 3.08642 3.08642 0 0 1-.2009.1832c-.1978.1648-.4107.2999-.6329.4057-.4045.1918-.8452.2894-1.2877.2897-.4424-.0003-.88308-.0979-1.2875-.2897-.22232-.1058-.43513-.2409-.63299-.4057a3.04424 3.04424 0 0 1-.2009-.1833Z"/>
  </g>
  <defs>
    <linearGradient id="b" x1="2.99985" x2="-3.20032" y1="5.81236" y2="11.551" gradientUnits="userSpaceOnUse">
      <stop stop-color="#04A645"/>
      <stop offset="1" stop-color="#A4D810"/>
    </linearGradient>
    <linearGradient id="c" x1="17.9999" x2="21.9518" y1="5.1094" y2="16.9286" gradientUnits="userSpaceOnUse">
      <stop stop-color="#D7019B"/>
      <stop offset="1" stop-color="#FF8D24"/>
    </linearGradient>
    <linearGradient id="d" x1="10.4231" x2="17.1907" y1="11.8462" y2="1.82638" gradientUnits="userSpaceOnUse">
      <stop stop-color="#543AEF"/>
      <stop offset="1" stop-color="#D218F0"/>
    </linearGradient>
    <linearGradient id="e" x1="15.5626" x2="17.8125" y1="8.06254" y2="10.125" gradientUnits="userSpaceOnUse">
      <stop stop-color="#AA17EF"/>
      <stop offset=".9999" stop-color="#D20072"/>
    </linearGradient>
    <linearGradient id="f" x1="10.9687" x2="4.2786" y1="14.2031" y2="2.01587" gradientUnits="userSpaceOnUse">
      <stop stop-color="#484EDE"/>
      <stop offset="1" stop-color="#1DB866"/>
    </linearGradient>
    <linearGradient id="g" x1="2.99998" x2="5.99987" y1="0" y2="11.2499" gradientUnits="userSpaceOnUse">
      <stop stop-color="#15BF59"/>
      <stop offset="1" stop-color="#528BC0"/>
    </linearGradient>
    <linearGradient id="h" x1="7.87499" x2="12.75" y1="10.8751" y2="10.8751" gradientUnits="userSpaceOnUse">
      <stop offset=".0001" stop-color="#3F66C3"/>
      <stop offset="1" stop-color="#6537F0"/>
    </linearGradient>
    <clipPath id="a">
      <path fill="#fff" d="M0 0h21v18H0z"/>
    </clipPath>
  </defs>
</svg>
